<svg width="24" height="24" viewBox="0 0 24 24" fill="none" xmlns="http://www.w3.org/2000/svg">
<path d="M12.338 21.9941C10.2946 22.0631 8.27905 21.504 6.5631 20.3922C4.84715 19.2805 3.51324 17.6694 2.7411 15.7762C1.96896 13.883 1.79571 11.7985 2.2447 9.80382C2.69369 7.8091 3.74333 5.99995 5.25219 4.62015C6.76105 3.24034 8.6566 2.35621 10.6834 2.0869C12.7102 1.81758 14.7709 2.17601 16.5877 3.11391C18.4045 4.0518 19.8902 5.52407 20.8445 7.33232C21.7989 9.14057 22.176 11.1979 21.925 13.2271" stroke="black" stroke-width="2" stroke-linecap="round" stroke-linejoin="round"/>
<path d="M12 6V12L14 13" stroke="#0192D5" stroke-width="2" stroke-linecap="round" stroke-linejoin="round"/>
<path d="M14 18L18 22L22 18" stroke="#0192D5" stroke-width="2" stroke-linecap="round" stroke-linejoin="round"/>
<path d="M18 14V22" stroke="#0192D5" stroke-width="2" stroke-linecap="round" stroke-linejoin="round"/>
</svg>
